# xmcd CD database file
#
# Track frame offsets:
#	150
#	15167
#	27387
#	40045
#	52365
#	67047
#	78772
#	90725
#	104235
#	118905
#	131965
#	149322
#	165152
#	176380
#	189045
#	204735
#	220725
#	239125
#	254037
#	270312
#	283472
#	298317
#
# Disc length: 4154 seconds
#
# Revision: 0
# Processed by: cddbd v1.5.2PL0 Copyright (c) Steve Scherf et al.
# Submitted via: CDex 1.70beta2
#
DISCID=58103816
DTITLE=Jones Country - Jones Country JCY-007
DYEAR=0000
DGENRE=Country
TTITLE0=Cristy Lane/One Day At A Time
TTITLE1=Brenda Lee/Break It To Me Gently
TTITLE2=Brenda Lee/I'm Sorry
TTITLE3=Johnny Lee/Bet Your Heart On Me
TTITLE4=Patty Loveless/Blue Side Of Town
TTITLE5=Loreta Lynn/Love Is The Foundation
TTITLE6=Loretta Lynn/Out Of My Head And Back In My Bed
TTITLE7=Loretta Lynn and Conway Twitty/Feelings
TTITLE8=Conway Twitty and Loretta Lynn/I Still Believe In Waltzes
TTITLE9=Barbara Mandrell/'Til You're Gone
TTITLE10=Barbara Mandrell/Only A Lonely Heart Knows
TTITLE11=Charly McClain/Sentimental Ol' You
TTITLE12=Mel McDaniel/Real Good Feel Good Song
TTITLE13=Reba McEntire/(You Lift MeUp) To Heaven
TTITLE14=Ronnie Milsap/Let's Take The Long Way Around The World
TTITLE15=Ronnie Milsap/Only One Love In My Life
TTITLE16=RonnieMilsap/Why Don't You Spend The Night
TTITLE17=Gary Morris/Baby, Bye Bye
TTITLE18=Gary Morris/Love She Found In Me
TTITLE19=Gary Morris/Why Lady Why
TTITLE20=Michael Martin Murphey/Carolina In The Pines (Edit)
TTITLE21=Faron Young/It's Four In The Morning
EXTD=YEAR: 0000
EXTT0=
EXTT1=
EXTT2=
EXTT3=
EXTT4=
EXTT5=
EXTT6=
EXTT7=
EXTT8=
EXTT9=
EXTT10=
EXTT11=
EXTT12=
EXTT13=
EXTT14=
EXTT15=
EXTT16=
EXTT17=
EXTT18=
EXTT19=
EXTT20=
EXTT21=
PLAYORDER=
